<svg width="456" height="456" viewBox="0 0 456 456" fill="none" xmlns="http://www.w3.org/2000/svg">
  <g clip-path="url(#clip0_631_29)">
    <rect width="456" height="456" fill="#1B1818"/>
    <path d="M399 218.5C399.065 243.577 393.206 268.316 381.9 290.7C368.494 317.523 347.885 340.084 322.382 355.856C296.878 371.628 267.487 379.988 237.5 380C212.423 380.065 187.684 374.206 165.3 362.9L57 399L93.1 290.7C81.7937 268.316 75.9346 243.577 76 218.5C76.0116 188.513 84.3716 159.122 100.144 133.618C115.916 108.115 138.477 87.5058 165.3 74.1C187.684 62.7937 212.423 56.9346 237.5 57H247C286.603 59.1848 324.008 75.9005 352.054 103.946C380.1 131.992 396.815 169.397 399 209V218.5Z" stroke="#14AE5C" stroke-width="4" stroke-linecap="round" stroke-linejoin="round"/>
    <path d="M299.75 262.555V283.93C299.758 285.914 299.352 287.878 298.557 289.697C297.762 291.515 296.596 293.147 295.134 294.488C293.671 295.83 291.945 296.851 290.065 297.487C288.186 298.122 286.194 298.359 284.217 298.18C262.293 295.798 241.232 288.306 222.729 276.306C205.513 265.367 190.918 250.771 179.979 233.556C167.937 214.969 160.444 193.806 158.105 171.782C157.927 169.812 158.161 167.826 158.793 165.952C159.424 164.077 160.439 162.354 161.773 160.893C163.106 159.432 164.73 158.264 166.539 157.465C168.349 156.666 170.305 156.252 172.284 156.25H193.659C197.117 156.216 200.469 157.44 203.091 159.695C205.712 161.95 207.425 165.081 207.909 168.505C208.811 175.345 210.484 182.062 212.896 188.526C213.855 191.076 214.062 193.848 213.494 196.512C212.926 199.177 211.606 201.623 209.69 203.56L200.641 212.609C210.784 230.446 225.553 245.216 243.391 255.359L252.44 246.31C254.377 244.394 256.823 243.074 259.487 242.506C262.152 241.938 264.923 242.145 267.474 243.104C273.938 245.516 280.654 247.189 287.495 248.091C290.956 248.579 294.117 250.323 296.377 252.99C298.636 255.656 299.837 259.061 299.75 262.555Z" stroke="#14AE5C" stroke-width="4" stroke-linecap="round" stroke-linejoin="round"/>
  </g>
  <defs>
    <clipPath id="clip0_631_29">
      <rect width="456" height="456" fill="white"/>
    </clipPath>
  </defs>
</svg>
